HIERARCHY
ROOT Hips
{
	OFFSET	0	0	0
	CHANNELS 6  Xposition Yposition Zposition Xrotation Yrotation Zrotation
	JOINT Spine
	{
		OFFSET	0	7.07069	1.42098
		CHANNELS 3  Xrotation Yrotation Zrotation
		JOINT Spine1
		{
			OFFSET	0	12.118	-2.16393
			CHANNELS 3  Xrotation Yrotation Zrotation
			JOINT Spine2
			{
				OFFSET	0	9.18588	0.984588
				CHANNELS 3  Xrotation Yrotation Zrotation
				JOINT Spine3
				{
					OFFSET	0	10.9928	3.26753
					CHANNELS 3  Xrotation Yrotation Zrotation
					JOINT Spine4
					{
						OFFSET	0	16.2728	-1.66623
						CHANNELS 3  Xrotation Yrotation Zrotation
						JOINT Neck
						{
							OFFSET	0	7.76851	-5.44228
							CHANNELS 3  Xrotation Yrotation Zrotation
							JOINT Head
							{
								OFFSET	0	9.32654	-2.79147
								CHANNELS 3  Xrotation Yrotation Zrotation
								End Site
								{
									OFFSET	0	19.4537	-0.941309
								}
							}
						}
					}
					JOINT LeftShoulder
					{
						OFFSET	-4.67409	19.7783	-9.32654
						CHANNELS 3  Xrotation Yrotation Zrotation
						JOINT LeftArm
						{
							OFFSET	-10.1845	-2.79147	3.58132
							CHANNELS 3  Xrotation Yrotation Zrotation
							JOINT LeftForeArm
							{
								OFFSET	-31.5067	-1.43802	2.24891
								CHANNELS 3  Xrotation Yrotation Zrotation
								JOINT LeftHand
								{
									OFFSET	-25.4342	-1.75765	1.81547
									CHANNELS 3  Xrotation Yrotation Zrotation
									End Site
									{
										OFFSET	-9.28223	-0.641455	0.662512
									}
								}
							}
						}
					}
					JOINT RightShoulder
					{
						OFFSET	4.67409	19.7783	-9.32654
						CHANNELS 3  Xrotation Yrotation Zrotation
						JOINT RightArm
						{
							OFFSET	10.1845	-2.79147	3.58132
							CHANNELS 3  Xrotation Yrotation Zrotation
							JOINT RightForeArm
							{
								OFFSET	31.5067	-1.43802	2.24891
								CHANNELS 3  Xrotation Yrotation Zrotation
								JOINT RightHand
								{
									OFFSET	25.4342	-1.75765	1.81547
									CHANNELS 3  Xrotation Yrotation Zrotation
									End Site
									{
										OFFSET	9.28223	-0.641455	0.662512
									}
								}
							}
						}
					}
				}
			}
		}
	}
	JOINT LeftUpLeg
	{
		OFFSET	-9.61129	-3.53534	-0.71049
		CHANNELS 3  Xrotation Yrotation Zrotation
		JOINT LeftLeg
		{
			OFFSET	-2.18601	-42.8339	-0.669588
			CHANNELS 3  Xrotation Yrotation Zrotation
			JOINT LeftFoot
			{
				OFFSET	-2.13734	-39.398	3.38822
				CHANNELS 3  Xrotation Yrotation Zrotation
				JOINT LeftToeBase
				{
					OFFSET	0	-4.79061	-12.7239
					CHANNELS 3  Xrotation Yrotation Zrotation
					End Site
					{
						OFFSET	0	-1.91625	-7.66498
					}
				}
			}
		}
	}
	JOINT RightUpLeg
	{
		OFFSET	9.61129	-3.53534	-0.71049
		CHANNELS 3  Xrotation Yrotation Zrotation
		JOINT RightLeg
		{
			OFFSET	2.18601	-42.8339	-0.669588
			CHANNELS 3  Xrotation Yrotation Zrotation
			JOINT RightFoot
			{
				OFFSET	2.13734	-39.398	3.38822
				CHANNELS 3  Xrotation Yrotation Zrotation
				JOINT RightToeBase
				{
					OFFSET	0	-4.79061	-12.7239
					CHANNELS 3  Xrotation Yrotation Zrotation
					End Site
					{
						OFFSET	0	-1.91625	-7.66498
					}
				}
			}
		}
	}
}
MOTION
Frames: 9
Frame Time: 0.020408
 -154.517 86.3643 -18.4769 174.665 -6.17001 172.68 180 179.999 -179.548 175.119 179.999 -179.246 175.06 179.996 -179.246 176.568 179.999 -179.548 178.788 -179.997 -179.849 1.48206 10.1409 1.93056 0.368307 14.9827 1.6892 1.20912 -18.2538 2.59362 7.7547 -6.60348 30.0912 166.878 -119.185 166.757 -0 -10.4557 10.9349 179.24 -164.869 -178.783 38.7289 4.23571 -28.6588 60.3432 68.411 -56.671 -0 -26.9551 -32.7604 11.6304 -3.85145 5.14418 140.929 -172.405 179.822 25.2107 -0.0786317 10.9667 165.638 180 -180 8.51794 -32.3327 20.5895 142.009 -174.343 -179.637 27.0168 0.011032 -11.088 0.20475 0 0
 -154.944 86.4349 -18.4808 174.295 -5.96016 172.775 180 179.997 -179.544 175.366 179.994 -179.24 175.281 179.983 -179.24 176.658 179.997 -179.544 179.045 -179.997 -179.848 1.95784 8.83458 0.817942 0.520438 13.8937 1.26323 1.32989 -17.6614 2.84801 6.56904 -5.50314 32.3512 167.196 -119.667 166.99 -0 -10.4659 10.8458 178.942 -165.392 -178.292 37.4046 3.18687 -29.4793 61.3624 68.4003 -57.6071 -0 -27.6115 -33.4436 11.1311 -3.88717 4.80608 141.255 -173.413 179.943 24.7353 -0.0885757 10.6064 165.68 180 -180 6.12455 -31.3038 18.8019 143.244 -174.633 -179.613 27.4864 -0.0268543 -11.491 0.205195 0 0
 -155.578 86.532 -18.6773 173.918 -5.89348 172.507 3.27711e-06 -0.000409892 0.458073 175.593 -179.999 -179.237 175.499 -179.998 -179.237 176.78 -180 -179.542 179.189 -179.998 -179.847 2.08512 6.81291 -0.55442 0.576258 11.9943 0.707487 1.3529 -17.0988 2.89229 6.17507 -3.9974 33.9203 167.462 -120.584 167.424 -0 -10.2213 10.3512 178.985 -166.219 -178.341 36.8101 2.29559 -30.3762 62.8809 68.4627 -59.2329 -0 -28.1979 -33.8667 10.7004 -3.92873 4.63601 141.931 -174.492 179.966 23.9042 -0.116248 10.2118 165.717 180 -180 4.02175 -30.4205 17.2919 144.167 -174.889 -179.562 28.1174 -0.0301938 -11.4636 0.197188 0 0
 -156.392 86.5776 -18.829 173.578 -5.09683 172.646 5.3689e-05 -0.00661789 0.464813 175.743 -179.987 -179.225 175.674 -179.96 -179.225 176.952 -179.993 -179.535 179.071 -179.997 -179.845 1.5193 4.95273 -0.958791 0.425762 9.36591 0.405407 1.34977 -16.4409 2.87939 5.98491 -2.30651 35.2262 167.769 -121.826 167.835 -0 -9.87896 9.72438 179.118 -167.312 -178.534 35.6125 1.59994 -31.7215 64.8533 68.253 -61.3932 -0 -28.6435 -34.5571 10.1996 -4.70786 4.34709 142.318 -175.694 179.722 23.582 -0.0661656 9.76143 165.753 180 -180 2.33819 -29.8798 15.5855 144.822 -174.524 -179.609 28.7789 -0.0308923 -11.445 0.186328 0 0
 -157.193 86.5725 -18.9631 173.182 -4.61065 172.868 8.94936e-05 -0.0106805 0.480081 175.877 -179.979 -179.2 175.817 -179.936 -179.2 177.071 -179.989 -179.52 179.046 -179.997 -179.84 1.24537 3.1344 -0.384297 0.361996 5.69591 0.308031 1.32109 -15.9946 2.81384 5.37009 -0.733993 36.5284 168.087 -123.101 168.363 -0 -9.44689 9.3241 179.136 -169.1 -178.527 34.1106 1.05103 -32.4849 65.3635 68.0217 -61.7936 -0 -29.1464 -34.9759 9.52448 -5.92157 3.80354 142.771 -176.686 179.844 23.6246 -0.0441213 9.37322 165.785 180 -180 0.741432 -28.981 13.8658 145.369 -173.633 -179.503 29.3019 -0.0325539 -11.4189 0.167786 0 0
 -157.859 86.7321 -18.8487 172.987 -4.27006 173.1 6.0724e-05 -0.00693179 0.501911 176.043 -179.986 -179.163 175.909 -179.958 -179.163 176.96 -179.993 -179.498 179.62 -179.999 -179.833 2.69973 1.93636 -0.0727957 0.806443 3.29033 0.211374 1.29635 -16.012 2.76128 5.1771 0.218114 37.481 168.296 -124.243 168.564 -0 -8.95232 9.01108 179.113 -170.429 -178.461 32.4848 0.327952 -32.5727 66.4294 67.8547 -62.7879 -0 -29.4696 -35.3446 8.77831 -7.12293 3.23832 143.862 -177.561 179.94 22.9687 -0.0241316 9.04526 165.813 180 -180 179.61 -152.008 -167.566 145.955 -172.881 -179.563 29.0166 -0.0213742 -11.4031 0.148906 0 0
 -158.614 86.8184 -18.9266 173.02 -4.1326 173.185 3.12991e-05 -0.00343731 0.521703 176.185 -179.993 -179.13 176.008 -179.979 -179.13 176.925 -179.997 -179.478 179.969 -180 -179.826 3.55245 1.2368 -0.322615 1.06422 2.39947 0.0674605 1.31367 -15.8974 2.79705 4.62089 1.16454 38.9234 168.501 -124.957 168.797 -0 -8.55173 8.63592 179.468 -170.953 -179.07 31.2518 -0.724573 -32.6887 68.5508 67.8222 -65.033 -0 -29.6258 -35.6303 8.67119 -8.57321 3.04467 144.558 -178.461 179.829 22.7323 0.0046808 8.78337 165.838 180 -180 178.622 -152.907 -169.179 146.419 -171.907 -179.608 29.2816 -0.0365063 -11.3825 0.127817 0 0
 -159.599 86.8693 -19.2115 172.689 -4.71984 173.194 4.09804e-07 -4.61459e-05 0.508808 176.229 -180 -179.152 176.062 -180 -179.152 176.985 -180 -179.491 179.912 -180 -179.83 3.35077 1.42417 -0.550118 1.00311 2.9707 0.0391586 1.21715 -16.2721 2.59478 4.04709 1.89591 39.2913 168.608 -125.81 169.005 -0 -8.096 8.62065 179.715 -172.417 -179.494 29.6941 -1.69853 -32.4935 70.3626 67.6759 -66.9228 -0 -29.473 -35.8923 8.80558 -10.3709 2.79406 145.044 -179.345 179.739 21.802 -0.00942834 8.54084 165.86 180 -180 177.638 -154.098 -170.716 146.623 -170.373 -179.556 29.3985 -0.0620602 -11.3491 0.100179 0 0
 -160.238 86.9207 -19.2846 172.388 -5.00722 173.171 180 179.999 -179.518 176.262 179.997 -179.197 176.082 179.992 -179.197 176.968 179.999 -179.518 0.0141611 3.9709e-05 0.160663 3.59904 0.740762 -1.56857 1.08154 3.01852 -0.27078 1.19812 -16.8547 2.55917 2.76759 2.36841 39.6914 168.882 -127.033 169.356 -0 -7.39552 8.61751 179.962 -173.693 -179.931 27.6179 -2.21203 -32.1949 72.2987 67.3921 -68.9697 -0 -29.3647 -36.16 8.8249 -11.633 2.52298 145.611 179.046 179.985 20.8482 -0.0357407 8.35996 165.879 180 -180 176.937 -155.438 -171.78 146.804 -168.567 -179.557 29.2983 -0.0629894 -11.3154 0.0631477 0 0
